<svg width="214" height="220" viewBox="0 0 214 220" fill="none" xmlns="http://www.w3.org/2000/svg">
<path d="M29.1157 58.7595L30.1597 58.9464C32.4472 56.0641 35.4382 52.0281 38.076 49.623C41.2065 51.9014 49.359 56.9621 49.023 60.9418L49.5203 61.6845C31.8203 82.8607 27.3053 112.102 37.794 137.632C53.4173 175.659 96.9285 193.785 134.919 178.093L133.216 180.775C141.483 178.855 148.282 172.31 155.137 169.161C159.818 167.01 166.259 179.07 173.324 179.267C174.031 176.988 171.818 174.855 172.271 170.491L173.287 170.245L175.287 169.707C177.934 174.781 182.026 183.67 184.225 189.164C178.209 193.319 167.064 200.615 161.839 205.164L159.659 205.002C155.588 202.063 147.155 195.584 144.221 191.778C140.873 193.91 128.995 198.33 125.482 197.7C123.817 204.189 121.255 213.039 120.001 219.422C115.068 219.486 109.381 219.698 104.509 219.477L93.8468 218.94C91.833 213.713 89.3782 203.727 88.3515 198.218C81.609 196.819 75.1635 194.254 68.6768 191.907C63.4358 196.154 58.35 200.762 53.289 205.234C46.0027 200.216 36.468 194.01 29.8935 188.399C32.103 182.321 35.181 175.343 37.6852 169.285C33.1237 162.686 28.6695 156.013 24.3255 149.268C19.9575 149.478 14.8342 149.812 10.4737 149.643C7.69875 149.535 7.49999 148.73 6.11099 146.938L6.78149 146.189C3.66299 139.992 2.76825 128.782 0 121.097C2.229 119.915 10.8062 115.246 13 114C13.5 110 15.829 95.4497 16 89.5C13.2985 87.5555 2.0385 80.3131 2.088 77.1233L4.20824 77.7459C7.38525 75.8157 9.82199 66.0086 11.3227 61.725C15.3615 61.9553 25.0687 63.749 27.846 61.5915L28.0327 59.0304L29.1157 58.7595Z" fill="#464646"/>
<path d="M37.7942 137.631C53.4174 175.658 96.9286 193.784 134.919 178.091L133.216 180.773C100.679 190.363 70.9021 184.742 48.3249 157.757C44.4834 153.166 37.1897 143.661 37.7942 137.631Z" fill="#464646"/>
<path d="M15.9172 89.7832L17.229 90.1298C17.9887 93.4546 15.9878 111.065 16.206 117.332L4.26974 123.658C5.47124 128.59 9.57449 142.139 8.08424 145.712L6.78149 146.187C3.66299 139.99 2.76825 128.78 0 121.095C2.229 119.914 4.44073 118.701 6.63448 117.454L13.161 114.093C12.9592 104.375 14.0332 99.123 15.9172 89.7832Z" fill="#464646"/>
<path d="M173.287 170.245L175.287 169.707C177.934 174.781 182.027 183.669 184.225 189.164C178.209 193.319 167.064 200.615 161.839 205.164L160.161 201.14C162.52 198.743 173.142 191.483 176.315 189.255C175.964 183.449 172.51 173.193 173.287 170.245Z" fill="#464646"/>
<path d="M115.184 216.144C117.507 210.675 118.004 203.474 121.265 198.624C122.145 197.315 123.678 197.721 125.482 197.699C123.817 204.188 121.255 213.038 120.002 219.421C115.068 219.485 109.381 219.697 104.509 219.476C107.251 216.661 111.212 216.691 115.184 216.144Z" fill="#464646"/>
<path d="M37.6853 169.283L39.465 169.96C40.743 173.817 36.9623 181.914 35.1675 185.588C33.7073 188.578 33.2123 188.439 29.8936 188.398C32.1031 182.32 35.181 175.341 37.6853 169.283Z" fill="#464646"/>
<path d="M144.222 191.777C147.907 190.583 156.741 198.577 160.161 201.139L161.839 205.163L159.66 205.001C155.588 202.062 147.155 195.583 144.222 191.777Z" fill="#464646"/>
<path d="M173.445 118.389C173.672 121.122 173.975 122.753 173.209 125.439C171.973 126.593 171.648 126.775 170.07 127.524C150.958 136.607 131.88 145.593 112.597 154.331C105.049 157.752 96.3716 161.928 88.4666 164.642C86.5879 165.286 85.3361 164.458 83.3141 163.776L82.6406 162.995C86.1431 158.328 162.491 123.513 173.445 118.389Z" fill="#464646"/>
<path d="M84.5148 144.467C88.1741 144.759 89.6553 145.86 92.7633 147.668C86.2038 150.889 80.6988 153.264 75.3633 158.392L65.2354 153.517C71.8826 150.665 78.0191 147.656 84.5148 144.467Z" fill="#464646"/>
<path d="M71.542 137.139C73.834 138.05 74.5487 137.879 75.76 139.665C73.9817 142.984 62.284 147.385 57.4037 149.917C55.276 149.989 53.3987 149.723 52.8242 147.556C55.0382 144 67.3097 139.072 71.542 137.139Z" fill="#464646"/>
<path d="M136.809 148.599C139.497 148.279 141.98 150.082 142.509 152.737C143.04 155.393 141.438 158.01 138.833 158.748C136.955 159.279 134.938 158.711 133.613 157.279C132.287 155.846 131.877 153.791 132.552 151.959C133.226 150.127 134.871 148.83 136.809 148.599Z" fill="#464646"/>
<path d="M116.753 157.56C118.428 156.87 120.345 157.141 121.764 158.268C123.182 159.394 123.881 161.2 123.589 162.988C123.298 164.777 122.063 166.267 120.36 166.885C117.803 167.813 114.974 166.526 113.992 163.989C113.011 161.451 114.237 158.594 116.753 157.56Z" fill="#464646"/>
<path d="M60.4498 129.662C61.949 130.554 62.447 130.702 63.3755 132.213C61.6903 135.748 50.9825 138.367 47.1125 139.625L45.1078 140.036L44.5303 139.34C46.3873 135.826 56.6833 131.431 60.4498 129.662Z" fill="#464646"/>
<path d="M97.3667 165.769C99.8919 165.316 102.341 166.879 102.996 169.361C103.65 171.841 102.29 174.409 99.8694 175.261C98.1211 175.876 96.1757 175.457 94.8354 174.176C93.4959 172.895 92.9882 170.971 93.5229 169.196C94.0569 167.421 95.5427 166.097 97.3667 165.769Z" fill="#464646"/>
<path d="M154.742 139.568C156.416 138.912 158.315 139.238 159.674 140.416C161.033 141.595 161.626 143.429 161.214 145.179C160.802 146.93 159.453 148.307 157.712 148.755C155.236 149.392 152.693 147.991 151.907 145.559C151.12 143.126 152.363 140.501 154.742 139.568Z" fill="#464646"/>
<path d="M49.3898 118.992C51.435 118.974 50.6775 118.596 51.9277 119.657C50.112 121.405 45.9008 122.899 43.4093 123.948C43.0838 124.025 41.5665 124.068 41.1308 124.09L41.124 123.193C43.812 120.964 46.1483 120.262 49.3898 118.992Z" fill="#464646"/>
<path d="M118.985 2.16602C120.707 7.69111 122.311 13.2515 123.795 18.8448L143.306 25.2604C147.626 20.9146 152.788 15.4795 157.288 11.4825C163.391 14.9716 172.96 20.1029 178.154 24.3182C176.18 29.7202 173.2 37.2416 171.587 42.6339C175.824 47.3863 180.835 52.7366 184.569 57.7643L203.048 54.7471C206.922 62.1169 209.731 70.4904 212.34 78.4116L197.945 88.7521C199.658 97.9096 200.595 104.453 200.637 113.861L208.404 118.135L213.734 121.489C211.979 129.956 208.022 142.35 206.795 149.545C200.669 149.819 194.537 149.941 188.405 149.91C184.094 157.697 180.278 162.468 175.286 169.707L173.286 170.245L172.27 170.491C171.817 174.854 174.031 176.988 173.323 179.266C166.259 179.07 159.818 167.01 155.136 169.161C148.282 172.31 141.483 178.854 133.215 180.774L134.919 178.092C163.459 166.303 181.741 138.092 180.846 107.218C179.952 76.3449 160.067 49.24 130.891 39.1238C101.715 29.0083 69.3258 37.988 49.5198 61.684L49.0225 60.9413C49.3585 56.9616 41.206 51.9009 38.0755 49.6226C35.4377 52.0277 32.4467 56.0637 30.1592 58.9459L29.1152 58.7591C30.4802 55.2137 37.5235 47.9669 40.408 43.9227L41.0402 43.6459C42.2545 40.18 38.7775 31.3969 37.5325 27.5724C42.7795 23.9896 48.6017 20.6415 54.0677 17.3595C58.3795 20.9078 63.8837 26.3489 69.4427 25.8493C71.6785 25.5327 85.837 20.628 88.876 19.6205C90.4082 14.2169 92.0073 7.91988 94.1035 2.78488C96.1473 5.01442 115.002 4.43905 118.368 3.75713L118.985 2.16602Z" fill="#464646"/>
<path d="M32.8467 25.9076C40.1787 21.3832 46.8222 16.7899 54.4197 12.5078C60.4654 16.6683 64.5432 20.3915 69.4437 25.8483C63.8847 26.3479 58.3804 20.9069 54.0687 17.3585C48.6027 20.6406 42.7804 23.9886 37.5334 27.5715C38.7784 31.3959 42.2554 40.1791 41.0412 43.6449L40.4089 43.9217L32.8467 25.9076Z" fill="#464646"/>
<path d="M9.40488 57.4609C15.4679 57.83 21.9471 58.5037 28.0326 59.0304L27.8459 61.5915C25.0686 63.749 15.3614 61.9553 11.3226 61.725C9.82188 66.0085 7.38514 75.8157 4.20814 77.7459L2.08789 77.1233L9.40488 57.4609Z" fill="#464646"/>
<path d="M94.1035 2.785L94.585 1.26815C97.1657 -0.587805 110.466 0.0956264 114.165 0.251664C117.458 0.390448 117.296 0.199153 118.985 2.16613L118.368 3.75725C115.002 4.43917 96.1473 5.01454 94.1035 2.785Z" fill="#464646"/>
<path d="M58.1349 90.998L66.9989 78.1943L107.114 98.825L95.7135 112.298C95.0108 113.129 93.821 113.351 92.8659 112.83L58.9219 94.3151C57.7261 93.6629 57.3595 92.1179 58.1349 90.998Z" fill="#DCDBDC" stroke="black" stroke-width="3.16025" stroke-linecap="round"/>
<path d="M117.396 112.078L107.114 98.7114L148.376 80.373L155.99 90.8431C156.811 91.9713 156.442 93.5646 155.209 94.2173L120.286 112.706C119.298 113.229 118.077 112.964 117.396 112.078Z" fill="#DCDBDC" stroke="black" stroke-width="3.16025" stroke-linecap="round"/>
<path d="M65.8483 122.516L65.7695 97.9443L93.6775 112.674C93.9929 112.84 94.3806 112.775 94.6239 112.514L105.835 100.5C106.293 100.01 107.114 100.334 107.114 101.004V142.704C107.114 143.556 106.217 144.11 105.455 143.729L67.1155 124.559C66.3412 124.172 65.8511 123.381 65.8483 122.516Z" fill="#0088FF" stroke="black" stroke-width="3.16025" stroke-linecap="round"/>
<path d="M147.108 124.561L108.258 143.986C107.732 144.249 107.114 143.867 107.114 143.28V101.649C107.114 100.917 108.024 100.579 108.502 101.133L118.3 112.488C118.537 112.763 118.931 112.84 119.255 112.677L148.376 97.9443V122.511C148.376 123.379 147.885 124.173 147.108 124.561Z" fill="#0088FF" stroke="black" stroke-width="3.16025" stroke-linecap="round"/>
<path d="M147.936 79.7754L106.853 62.7891" stroke="black" stroke-width="3.16025" stroke-linecap="round"/>
<path d="M67.3494 77.4052L106.853 62.7891" stroke="black" stroke-width="3.16025" stroke-linecap="round"/>
<path d="M142.8 119.579V116.605C142.8 116.018 142.182 115.636 141.657 115.899L136.126 118.664C135.859 118.798 135.689 119.071 135.689 119.371V122.344C135.689 122.932 136.308 123.314 136.833 123.051L142.363 120.286C142.631 120.152 142.8 119.878 142.8 119.579Z" stroke="black" stroke-width="1.58012" stroke-linecap="round"/>
<path d="M107.248 97.1553V64.7627L144.381 80.1689L107.248 97.1553Z" fill="#898989" stroke="black" stroke-width="0.790062" stroke-linecap="round"/>
<path d="M106.458 97.1553V64.7627L70.1151 78.1938L106.458 97.1553Z" fill="#D9D9D9" stroke="black" stroke-width="0.790062" stroke-linecap="round"/>
</svg>
