<svg width="256" height="45" viewBox="0 0 256 45" fill="none" xmlns="http://www.w3.org/2000/svg">
<path d="M167.275 1.25294C183.505 1.21089 207.705 -2.60156 208.319 20.6094C208.528 28.4954 208.089 32.959 202.491 38.9024C194.258 46.0502 178.299 44.1679 167.235 44.1035L167.275 1.25294ZM194.338 11.2725C190.309 8.11293 181.751 8.77641 176.72 8.80568L176.701 36.5117C183.677 36.6236 190.046 37.7203 195.512 33.291C199.742 27.5291 200.403 16.0273 194.338 11.2725Z" fill="#464646"/>
<path d="M145.632 1.2666C150.414 14.692 157.272 30.6955 162.665 44.1641C159.4 44.0876 155.967 44.1434 152.691 44.1475C151.587 41.1593 150.567 37.2146 148.995 34.4199C148.593 33.7079 148.066 33.8696 147.222 33.8154C141.398 33.7547 135.577 33.7892 129.753 33.918C128.499 37.3018 127.23 40.6789 125.939 44.0488C122.773 44.1322 119.446 44.0941 116.266 44.1055L132.419 1.19336L145.632 1.2666ZM138.77 8.31641C136.901 12.403 133.453 22.2283 132.145 26.6553L139.99 26.5654L146.37 26.6768C145.167 23.4429 140.674 10.1175 138.77 8.31641Z" fill="#464646"/>
<path d="M41.5011 1.18213L50.8618 1.17773C50.9437 4.83584 50.3182 16.4146 51.4285 18.8868C55.9164 19.7952 64.1661 5.20155 67.2665 1.25162L77.5511 1.35692C72.4727 7.98671 67.5151 14.7054 62.6744 21.51L72.3338 35.2065C74.4178 38.1406 76.4725 41.0961 78.4944 44.0729L67.6832 44.145C63.9211 38.3918 59.6727 32.4872 55.7153 26.8364L50.9627 26.753C50.8823 32.5036 50.9225 38.3665 50.9053 44.1271L41.4971 44.1384L41.5011 1.18213Z" fill="#464646"/>
<path d="M14.6691 0.156933C21.9754 -0.350659 26.4491 0.32626 33.1865 2.87556C32.9635 5.8626 32.7668 7.81106 32.2509 10.7721C27.2293 8.82368 10.2817 3.65415 9.1476 12.4013C11.0426 19.2944 34.4358 16.2353 35.2694 28.7865C36.0292 40.2183 29.9988 43.1801 19.9894 44.6199C12.3993 44.7457 7.23142 44.9026 0 41.9346C0.389742 39.2306 0.683693 36.4037 1.00543 33.6811C5.29661 35.6599 25.27 42.1335 26.0875 31.0897C26.3558 27.4638 18.2952 26.174 15.1414 25.5128C9.46019 24.3221 0.874182 22.5071 0.0968923 15.121C-0.7718 5.22006 5.55693 1.13189 14.6691 0.156933Z" fill="#464646"/>
<path d="M83.7998 1.23311L93.0168 1.20166L93.0278 36.4877L112.116 36.5217C112.142 38.2987 112.445 43.0458 111.55 44.1042C102.241 44.1824 92.9327 44.1583 83.6279 44.0318C83.7084 29.8137 83.5767 15.4113 83.7998 1.23311Z" fill="#464646"/>
<path d="M242.632 1.14795L253.736 1.29495C251.644 4.28565 242.643 17.8425 240.672 19.4779C238.157 18.9521 225.401 18.6745 223.244 19.482C219.28 14.624 214.023 6.49924 210.096 1.16623C214.019 1.2028 217.946 1.21963 221.873 1.21634L232.154 16.0159C235.718 11.1115 239.213 6.15512 242.632 1.14795Z" fill="#D9D9D9"/>
<path d="M223.243 19.4828C225.401 18.6753 238.157 18.9529 240.672 19.4787C235.206 27.5684 228.742 36.1551 222.995 44.1935C219.262 44.0681 215.525 44.0289 211.792 44.0765C216.523 37.2529 221.478 30.6322 226.179 23.7351L223.243 19.4828Z" fill="#0088FF"/>
<path d="M240.958 25.4658C242.438 26.515 253.169 41.6221 255.066 44.1762L249.959 44.1586C247.608 44.1875 245.136 44.1151 242.775 44.0847C240.219 40.5532 237.656 36.9101 234.892 33.5482C236.197 31.3675 239.29 27.5858 240.958 25.4658Z" fill="#0088FF"/>
</svg>
